<?xml version="1.0" encoding="UTF-8" standalone="no"?><!DOCTYPE svg PUBLIC "-//W3C//DTD SVG 1.1//EN" "http://www.w3.org/Graphics/SVG/1.1/DTD/svg11.dtd"><svg width="100%" height="100%" viewBox="0 0 208 182" version="1.1" xmlns="http://www.w3.org/2000/svg" xmlns:xlink="http://www.w3.org/1999/xlink" xml:space="preserve" xmlns:serif="http://www.serif.com/" style="fill-rule:evenodd;clip-rule:evenodd;stroke-miterlimit:1.5;"><path id="Logo---Variante-1" serif:id="Logo - Variante 1" d="M103.902,5.868l-48.906,0l24.44,42.161l24.466,-14.089l0,-28.073Zm98.086,0l-48.932,0l-24.479,42.266l73.411,42.24l0,-84.505Zm0,169.271l0,-84.766l-73.49,42.318l24.583,42.448l48.906,0Zm-122.448,-42.37l-24.544,42.37l48.958,0l-0.026,-28.333l-24.388,-14.036Zm-73.672,42.37l49.128,0l24.544,-42.37l-73.672,-42.409l0,84.779Zm122.63,-42.448l-24.57,14.115l-24.388,-14.036l24.518,-42.279l24.44,42.201Z" style="fill:none;fill-rule:nonzero;stroke:#009ee0;stroke-width:6.51px;"/></svg>